HIERARCHY
ROOT SpineBase
{
  OFFSET 0.000000 0.000000 0.000000
  CHANNELS 6 Xposition Yposition Zposition Zrotation Xrotation Yrotation
  JOINT SpineMid
  {
    OFFSET 0.000000 28.511179 0.000000
    CHANNELS 3 Zrotation Xrotation Yrotation
    JOINT SpineShoulder
    {
      OFFSET 0.527336 20.783334 -0.099509
      CHANNELS 3 Zrotation Xrotation Yrotation
      JOINT Neck
      {
        OFFSET 0.247043 6.703233 -0.251168
        CHANNELS 3 Zrotation Xrotation Yrotation
        JOINT Head
        {
          OFFSET -10.297676 5.717457 -4.285171
          CHANNELS 3 Zrotation Xrotation Yrotation
          End Site
          {
            OFFSET 0 0 0
          }
        }
      }
      JOINT ShoulderLeft
      {
        OFFSET -11.033535 -0.430343 8.084227
        CHANNELS 3 Zrotation Xrotation Yrotation
        JOINT ElbowLeft
        {
          OFFSET 3.374921 -16.825621 9.162671
          CHANNELS 3 Zrotation Xrotation Yrotation
          JOINT WristLeft
          {
            OFFSET -4.648102 -12.346107 6.758072
            CHANNELS 3 Zrotation Xrotation Yrotation
            JOINT HandLeft
            {
              OFFSET -1.652390 -3.954785 2.550709
              CHANNELS 3 Zrotation Xrotation Yrotation
              JOINT HandTipLeft
              {
                OFFSET 1.445816 -0.350186 -0.107051
                CHANNELS 3 Zrotation Xrotation Yrotation
                End Site
                {
                  OFFSET 0 0 0
                }
              }
              JOINT ThumbLeft
              {
                OFFSET 0.722398 -0.511850 -2.015764
                CHANNELS 3 Zrotation Xrotation Yrotation
                End Site
                {
                  OFFSET 0 0 0
                }
              }
            }
          }
        }
      }
      JOINT ShoulderRight
      {
        OFFSET 32.838428 -11.191786 -20.584116
        CHANNELS 3 Zrotation Xrotation Yrotation
        JOINT ElbowRight
        {
          OFFSET 2.237931 -20.750125 4.268801
          CHANNELS 3 Zrotation Xrotation Yrotation
          JOINT WristRight
          {
            OFFSET -4.727057 0.978957 -11.070835
            CHANNELS 3 Zrotation Xrotation Yrotation
            JOINT HandRight
            {
              OFFSET -3.388799 1.876239 -6.635857
              CHANNELS 3 Zrotation Xrotation Yrotation
              JOINT HandTipRight
              {
                OFFSET -2.863866 2.827809 -5.051119
                CHANNELS 3 Zrotation Xrotation Yrotation
                End Site
                {
                  OFFSET 0 0 0
                }
              }
              JOINT ThumbRight
              {
                OFFSET 1.328194 6.109372 0.407182
                CHANNELS 3 Zrotation Xrotation Yrotation
                End Site
                {
                  OFFSET 0 0 0
                }
              }
            }
          }
        }
      }
    }
  }
  JOINT HipLeft
  {
    OFFSET -2.606082 -1.727864 -0.911382
    CHANNELS 3 Zrotation Xrotation Yrotation
    JOINT KneeLeft
    {
      OFFSET 19.138854 -11.914679 -31.825758
      CHANNELS 3 Zrotation Xrotation Yrotation
      JOINT AnkleLeft
      {
        OFFSET 19.990920 6.385246 35.561836
        CHANNELS 3 Zrotation Xrotation Yrotation
        JOINT FootLeft
        {
          OFFSET 8.291821 -0.760594 1.712917
          CHANNELS 3 Zrotation Xrotation Yrotation
          End Site
          {
            OFFSET 0 0 0
          }
        }
      }
    }
  }
  JOINT HipRight
  {
    OFFSET 4.511992 -0.857451 -4.667305
    CHANNELS 3 Zrotation Xrotation Yrotation
    JOINT KneeRight
    {
      OFFSET 44.025450 -2.346398 4.335001
      CHANNELS 3 Zrotation Xrotation Yrotation
      JOINT AnkleRight
      {
        OFFSET 19.044287 21.608440 24.372225
        CHANNELS 3 Zrotation Xrotation Yrotation
        JOINT FootRight
        {
          OFFSET -3.733955 -9.916890 -5.851017
          CHANNELS 3 Zrotation Xrotation Yrotation
          End Site
          {
            OFFSET 0 0 0
          }
        }
      }
    }
  }
}
MOTION
Frames: 8
Frame Time: 0.033333
-111.499987 17.554470 325.883866 -0.000000 0.000000 27.818817 -0.000000 0.000000 -27.818817 -0.000000 0.000000 0.000000 -0.000000 0.000000 0.000000 0.000000 0.000000 0.000000 -0.000000 0.000000 0.000000 -0.000000 0.000000 0.000000 -0.000000 0.000000 0.000000 -0.000000 0.000000 0.000000 0.000000 0.000000 0.000000 0.000000 0.000000 0.000000 -0.000000 0.000000 0.000000 -0.000000 0.000000 0.000000 -0.000000 0.000000 0.000000 -0.000000 0.000000 0.000000 0.000000 0.000000 0.000000 0.000000 0.000000 0.000000 -0.000000 0.000000 -27.818817 -0.000000 0.000000 0.000000 -0.000000 0.000000 0.000000 0.000000 0.000000 0.000000 -0.000000 0.000000 -27.818817 -0.000000 0.000000 0.000000 -0.000000 0.000000 0.000000 0.000000 0.000000 0.000000
-111.971716 17.689757 325.793970 -0.656349 0.264603 27.847192 0.456762 -0.540537 -27.843522 -0.000000 0.000000 0.000000 -0.000000 0.000000 0.000000 0.000000 0.000000 0.000000 -0.000000 0.000000 0.000000 -0.000000 0.000000 0.000000 -0.000000 0.000000 0.000000 -0.000000 0.000000 0.000000 0.000000 0.000000 0.000000 0.000000 0.000000 0.000000 -1.666154 6.981684 0.520111 1.477059 -6.088441 2.714575 -1.088675 1.577849 -3.340290 2.999826 -5.460875 0.299707 0.000000 0.000000 0.000000 0.000000 0.000000 0.000000 0.456762 -0.540537 -27.843522 -0.000000 0.000000 0.000000 -0.000000 0.000000 0.000000 0.000000 0.000000 0.000000 0.377882 -0.276653 -24.394958 0.180827 -0.207746 -3.448799 4.211122 -5.340367 -0.288931 0.000000 0.000000 0.000000
-112.455114 17.870177 325.694041 -1.315159 0.526863 27.769884 0.918378 -1.078824 -27.755190 -0.000000 0.000000 0.000000 0.329456 0.593763 1.312893 0.000000 0.000000 0.000000 -0.000000 0.000000 0.000000 -0.000000 0.000000 0.000000 -0.000000 0.000000 0.000000 -0.000000 0.000000 0.000000 0.000000 0.000000 0.000000 0.000000 0.000000 0.000000 -3.085927 12.718264 1.115108 2.650667 -11.216167 4.761073 -3.410671 6.690685 -6.310078 8.244333 -14.121268 2.006592 0.000000 0.000000 0.000000 0.000000 0.000000 0.000000 0.918378 -1.078824 -27.755190 -0.375640 0.416112 0.767281 0.370044 -0.421096 -0.764557 0.000000 0.000000 0.000000 0.669602 -0.556061 -21.613529 0.423813 -0.394390 -6.143752 7.398315 -9.299320 -0.279670 0.000000 0.000000 0.000000
-112.950181 18.095730 325.584080 -1.976423 0.786662 27.598626 1.387661 -1.612373 -27.565529 -0.930677 -0.580461 -0.018186 1.366508 1.392886 1.787933 0.000000 0.000000 0.000000 0.930540 0.580679 0.008756 -0.000000 0.000000 0.000000 -0.000000 0.000000 0.000000 -0.000000 0.000000 0.000000 0.000000 0.000000 0.000000 0.000000 0.000000 0.000000 -3.273497 17.612151 1.727955 3.513116 -15.157900 6.177965 -15.037474 35.726440 -9.303331 35.311211 -40.701780 20.685239 0.000000 0.000000 0.000000 0.000000 0.000000 0.000000 1.387661 -1.612373 -27.565529 -0.547964 0.618621 1.069793 0.536352 -0.628716 -1.063892 0.000000 0.000000 0.000000 0.884215 -0.854835 -19.754696 0.729723 -0.542882 -7.818215 9.503452 -11.791787 -0.199042 0.000000 0.000000 0.000000
-113.456917 18.366416 325.464087 -2.640136 1.043882 27.341029 1.867099 -2.138877 -27.282117 -1.305247 -0.569939 -0.034376 1.808643 1.544726 2.140525 0.000000 0.000000 0.000000 1.304969 0.570574 0.021385 -0.000000 0.000000 0.000000 -0.000000 0.000000 0.000000 -0.000000 0.000000 0.000000 0.000000 0.000000 0.000000 0.000000 0.000000 0.000000 -3.635576 20.463490 2.178950 4.060826 -17.839846 7.002374 165.587264 38.295737 132.150229 152.118523 1.735209 116.040863 0.000000 0.000000 0.000000 0.000000 0.000000 0.000000 1.867099 -2.138877 -27.282117 -0.709505 0.817844 1.318064 1.102682 -0.851705 -0.496871 0.000000 0.000000 0.000000 1.041153 -1.183137 -18.991807 1.091603 -0.635208 -8.308201 10.508574 -12.832888 -0.200493 0.000000 0.000000 0.000000
-113.975321 18.682235 325.334060 -3.306294 1.298405 27.001226 1.575837 -2.444708 -26.943495 -0.923420 -0.292408 -0.050858 2.249017 1.536983 2.367300 0.000000 0.000000 0.000000 2.452786 1.442305 0.628662 -2.087117 -0.766109 -1.431785 0.060199 -0.048257 -0.079888 1.284433 -0.124914 0.885552 0.000000 0.000000 0.000000 0.000000 0.000000 0.000000 -3.542396 21.792913 2.428233 4.291314 -19.259580 7.273037 149.604036 27.830705 132.526606 153.334779 24.273080 115.653334 0.000000 0.000000 0.000000 0.000000 0.000000 0.000000 2.359006 -2.656057 -26.909056 -0.859949 1.014068 1.512011 1.371442 -1.072920 -0.566838 0.000000 0.000000 0.000000 1.166497 -1.543233 -19.365600 1.493111 -0.655150 -7.578613 10.414527 -12.446687 -0.352566 0.000000 0.000000 0.000000
-114.733460 19.195477 325.072462 -4.379142 1.722872 26.187449 1.860560 -2.736556 -26.105849 -0.910502 -0.277166 -0.080485 3.342798 1.481360 3.059149 0.000000 0.000000 0.000000 4.140222 1.745227 1.307251 -4.448518 -1.320372 -2.854752 0.119205 -0.083924 -0.154897 2.572334 0.033819 1.660237 0.000000 0.000000 0.000000 0.000000 0.000000 0.000000 -2.532649 21.799467 2.493553 4.778786 -21.186985 7.081900 120.144757 30.778031 133.599626 140.513430 52.456839 110.784156 0.000000 0.000000 0.000000 0.000000 0.000000 0.000000 2.285546 -4.052889 -26.094143 -0.496554 2.190926 1.662054 1.747800 -1.378766 -0.514484 0.000000 0.000000 0.000000 1.608575 -2.354746 -22.510853 1.873750 -0.436149 -3.586934 7.810224 -7.794618 -1.223498 0.000000 0.000000 0.000000
-115.384726 19.666196 324.856975 -5.359062 2.064530 25.622953 1.959923 -2.831561 -25.524346 -0.841282 -0.238348 -0.113455 4.452025 1.206271 3.378874 0.000000 0.000000 0.000000 5.501872 2.154264 1.801951 -6.881614 -2.005868 -4.378990 0.198741 -0.130446 -0.256896 4.316548 0.304073 2.693377 0.000000 0.000000 0.000000 0.000000 0.000000 0.000000 -1.070780 19.755653 2.247171 4.282291 -19.770933 6.185781 62.314319 39.793912 151.565350 58.271408 78.952511 154.238638 0.000000 0.000000 0.000000 0.000000 0.000000 0.000000 2.957999 -4.371886 -24.243491 -0.525315 2.288763 1.009410 2.252273 -1.830929 -0.932945 0.000000 0.000000 0.000000 1.803516 -2.825382 -24.011004 2.504044 -0.359807 -1.494554 5.648610 -6.635745 -0.534573 0.000000 0.000000 0.000000
